<svg xmlns="http://www.w3.org/2000/svg" viewBox="0 0 891.89 241.86"><title>Asset 1</title><g id="Layer_2" data-name="Layer 2"><g id="Layer_2-2" data-name="Layer 2"><path d="M43.18,50.94,1,94.94a3.66,3.66,0,0,0-1,2.53V237.85a3.64,3.64,0,0,0,3.65,3.65H141.83a3.64,3.64,0,0,0,3.65-3.65V149.13a3.64,3.64,0,0,0-3.63-3.65H99.67A3.64,3.64,0,0,0,96,149.09v39.3A3.66,3.66,0,0,1,92.35,192H53.11a3.66,3.66,0,0,1-3.65-3.64V53.46a3.64,3.64,0,0,0-6.28-2.52Z"/><path d="M200.43,187.42,240,148.36a4.93,4.93,0,0,0,1.47-3.51V4.93A4.93,4.93,0,0,0,236.54,0H101a4.93,4.93,0,0,0-5,4.86V91.08A5,5,0,0,0,100.93,96h39.6a5,5,0,0,0,4.93-4.94V54.39a4.93,4.93,0,0,1,4.93-4.93H187.1a4.94,4.94,0,0,1,4.9,4.93V183.91a4.93,4.93,0,0,0,8.43,3.51Z"/><path d="M291.85,82.88l6.3-11.12c1.07-1.74,3.61-1.48,4.55-.81.54.27,10.19,7.37,19,7.37,5.36,0,9.25-3.35,9.25-8,0-5.62-4.69-9.91-13.8-13.53-11.53-4.56-26-13.53-26-29.61C291.18,13.87,301.5.47,322.13.47c13.94,0,24.66,7.1,28.68,10,1.61.94,1.34,3.35.8,4.29l-6.83,10.32c-.94,1.47-3.35,2.68-4.56,1.74-1.2-.67-11-8-19.16-8-4.82,0-8.44,3.21-8.44,6.83,0,5,4,8.71,14.61,13S354.29,51,354.29,69.21C354.29,83,342.37,97,322.67,97c-17.42,0-27.07-7.24-30.15-10.32C291.18,85.29,290.78,84.76,291.85,82.88Z"/><path d="M370.64,4.36a2.64,2.64,0,0,1,2.55-2.55h16.08a2.63,2.63,0,0,1,2.54,2.55V93.07a2.63,2.63,0,0,1-2.54,2.54H373.19a2.64,2.64,0,0,1-2.55-2.54Z"/><path d="M414.72,2.88A2.52,2.52,0,0,1,417.27.47h3.35l53.47,51.46h.13V4.36a2.55,2.55,0,0,1,2.55-2.55h16.08a2.63,2.63,0,0,1,2.54,2.55V94.54A2.51,2.51,0,0,1,492.85,97H490.7a3.94,3.94,0,0,1-1.74-.67L436,43.08h-.13v50a2.55,2.55,0,0,1-2.55,2.54h-16a2.63,2.63,0,0,1-2.54-2.54Z"/><path d="M560,.47c13.4,0,23.32,4.15,32.43,12.46a2.49,2.49,0,0,1,.13,3.75L582.09,27.54a2.34,2.34,0,0,1-3.35,0,27.39,27.39,0,0,0-18.09-6.84c-15.14,0-26.26,12.6-26.26,27.61s11.25,27.2,26.39,27.2a28.36,28.36,0,0,0,18-6.43,2.63,2.63,0,0,1,3.48.13l10.46,11.12a2.69,2.69,0,0,1-.14,3.62A46,46,0,0,1,560,97,48.24,48.24,0,1,1,560,.47Z"/><path d="M608.62,4.36a2.55,2.55,0,0,1,2.55-2.55h15.94a2.64,2.64,0,0,1,2.55,2.55V75.91h31.89a2.55,2.55,0,0,1,2.55,2.55V93.07a2.55,2.55,0,0,1-2.55,2.54H611.17a2.55,2.55,0,0,1-2.55-2.54Z"/><path d="M673.07,92.13,715,1.94A2.74,2.74,0,0,1,717.29.47h1.34a2.72,2.72,0,0,1,2.28,1.47l41.94,90.19a2.36,2.36,0,0,1-2.28,3.48H745.7c-2.41,0-3.49-.8-4.69-3.35l-4.82-10.59H699.74L694.91,92.4a5,5,0,0,1-4.82,3.21H675.35A2.37,2.37,0,0,1,673.07,92.13Zm55.08-28.68L718,41.34h-.13L707.78,63.45Z"/><path d="M775.85,4.36a2.63,2.63,0,0,1,2.54-2.55h16.08A2.64,2.64,0,0,1,797,4.36V93.07a2.64,2.64,0,0,1-2.55,2.54H778.39a2.63,2.63,0,0,1-2.54-2.54Z"/><path d="M820.06,4.36a2.55,2.55,0,0,1,2.55-2.55h40.07a29.14,29.14,0,0,1,29.21,28.94c0,12.33-8.17,22.25-19.83,26.94l18.36,34a2.53,2.53,0,0,1-2.28,3.88H870.32a2.46,2.46,0,0,1-2.15-1.21L850.35,58.89H841.1V93.07a2.63,2.63,0,0,1-2.54,2.54H822.61a2.55,2.55,0,0,1-2.55-2.54Zm40.88,37.52c5.49,0,10.18-5.1,10.18-10.72A10.27,10.27,0,0,0,860.94,21H841.1V41.88Z"/><path d="M291.21,149.27a2.64,2.64,0,0,1,2.54-2.55H309.7a2.55,2.55,0,0,1,2.55,2.55V183h38.32V149.27a2.55,2.55,0,0,1,2.55-2.55h15.94a2.64,2.64,0,0,1,2.55,2.55V238a2.63,2.63,0,0,1-2.55,2.54H353.12a2.54,2.54,0,0,1-2.55-2.54V202.73H312.25V238a2.54,2.54,0,0,1-2.55,2.54H293.75a2.63,2.63,0,0,1-2.54-2.54Z"/><path d="M401.76,149.27a2.63,2.63,0,0,1,2.54-2.55h16.49a2.55,2.55,0,0,1,2.54,2.55v54.27c0,9.38,7,16.88,16.48,16.88a16.53,16.53,0,0,0,16.75-16.88V149.27a2.55,2.55,0,0,1,2.55-2.55h16.48a2.64,2.64,0,0,1,2.55,2.55v55.34c0,20.37-17.15,37.25-38.33,37.25S401.76,225,401.76,204.61Z"/><path d="M508.15,149.27a2.52,2.52,0,0,1,2.41-2.55h32.7a46.9,46.9,0,1,1,0,93.8h-32.7a2.51,2.51,0,0,1-2.41-2.54Zm33.77,71.42c15.14,0,26.13-11.92,26.13-27.2s-11-27.07-26.13-27.07H529.06v54.27Z"/><path d="M609.72,227.79l6.3-11.12c1.07-1.74,3.62-1.47,4.56-.8.53.27,10.18,7.37,19,7.37,5.35,0,9.24-3.35,9.24-8,0-5.63-4.69-9.92-13.8-13.54-11.53-4.55-26-13.53-26-29.61,0-13.27,10.32-26.67,31-26.67,13.93,0,24.65,7.1,28.67,10.05,1.61.94,1.34,3.35.81,4.29L662.65,170c-.93,1.47-3.35,2.68-4.55,1.74-1.21-.67-11-8-19.17-8-4.82,0-8.44,3.22-8.44,6.83,0,5,4,8.71,14.61,13s27.07,12.33,27.07,30.56c0,13.8-11.93,27.73-31.63,27.73-17.42,0-27.07-7.23-30.15-10.31C609.05,230.21,608.65,229.67,609.72,227.79Z"/><path d="M738.23,145.38a48.24,48.24,0,1,1-48.11,48.38A48.16,48.16,0,0,1,738.23,145.38Zm0,75a26.8,26.8,0,1,0-26.67-26.66A26.85,26.85,0,0,0,738.23,220.42Z"/><path d="M811,147.79a2.51,2.51,0,0,1,2.54-2.41h3.35l53.47,51.46h.13V149.27a2.55,2.55,0,0,1,2.55-2.55h16.08a2.64,2.64,0,0,1,2.55,2.55v90.18a2.52,2.52,0,0,1-2.55,2.41H887a3.93,3.93,0,0,1-1.75-.67L832.29,188h-.13v50a2.54,2.54,0,0,1-2.55,2.54H813.67a2.63,2.63,0,0,1-2.55-2.54Z"/></g></g></svg>