<svg id="Layer_1" data-name="Layer 1" xmlns="http://www.w3.org/2000/svg" viewBox="0 0 216 216"><defs><style>.cls-1{fill:#fff;}</style></defs><title>wandb</title><path class="cls-1" d="M0,0V216H216V0ZM170.59,27.41a10.07,10.07,0,1,1-10.07,10.07A10.07,10.07,0,0,1,170.59,27.41ZM107.75,42.77A10.07,10.07,0,1,1,97.68,52.83,10.06,10.06,0,0,1,107.75,42.77Zm0,41.56A10.07,10.07,0,1,1,97.68,94.4,10.07,10.07,0,0,1,107.75,84.33ZM45.41,27.41A10.07,10.07,0,1,1,35.34,37.48,10.07,10.07,0,0,1,45.41,27.41Zm0,153.31a17.28,17.28,0,1,1,17.27-17.28A17.28,17.28,0,0,1,45.41,180.72ZM35.34,121.1a10.07,10.07,0,1,1,10.07,10.07A10.07,10.07,0,0,1,35.34,121.1ZM45.41,96A17.28,17.28,0,1,1,62.68,78.76,17.28,17.28,0,0,1,45.41,96Zm62.34,92.55a10.07,10.07,0,1,1,10.07-10.07A10.07,10.07,0,0,1,107.75,188.59Zm.25-34.86a17.28,17.28,0,1,1,17.27-17.27A17.27,17.27,0,0,1,108,153.73Zm62.59,18.86a10.07,10.07,0,1,1,10.07-10.07A10.07,10.07,0,0,1,170.59,172.59Zm0-41.42a10.07,10.07,0,1,1,10.07-10.07A10.07,10.07,0,0,1,170.59,131.17Zm0-34.6a17.28,17.28,0,1,1,17.28-17.28A17.28,17.28,0,0,1,170.59,96.57Z"/></svg>