<?xml version="1.0" encoding="utf-8"?>
<!-- Generator: Adobe Illustrator 23.0.0, SVG Export Plug-In . SVG Version: 6.00 Build 0)  -->
<svg version="1.1" id="Layer_1" xmlns="http://www.w3.org/2000/svg" xmlns:xlink="http://www.w3.org/1999/xlink" x="0px" y="0px"
	 viewBox="0 0 500 500" style="enable-background:new 0 0 500 500;" xml:space="preserve">
<style type="text/css">
	.st0{display:none;fill:#FFFFFF;}
	.st1{fill:#FFFFFF;}
	.st2{display:none;fill-rule:evenodd;clip-rule:evenodd;fill:#FFFFFF;}
</style>
<path class="st0" d="M-498.99-109.78V18.44h68.28v-49h-16.42v-20.33h16.42c0,0,0-9.38,0-20.85s10.95-18.76,24.24-18.76
	c13.29,0,15.64,0,15.64,0V-72c0,0-7.3,0-10.95,0c-3.65,0-8.34,1.82-8.34,6.52s-0.52,14.07-0.52,14.07l19.81,0.26l-2.61,20.33
	l-16.68-0.26l0.76,49.52h38.6v-128.22H-498.99z"/>
<g>
	<path class="st1" d="M232.42,130.48c0,16.31,0,33.64,0,45.87c0,12.23,17.58,11.21,17.58,0c0,0,0-30.58,0-45.87
		S232.42,114.17,232.42,130.48z"/>
	<path class="st1" d="M240.57,396.13v-98.88h-17.33c0,0,0,66.26,0,72.38s-17.33,19.37-17.33-2.04c0-21.41,0-70.34,0-70.34H189.6
		c0,0,0,72.38,0,84.61c0,12.23,11.21,23.45,33.64,3.06c0,8.74,0.25,11.21,0.25,11.21H240.57z"/>
	<polygon class="st1" points="167.31,396.17 167.31,282.88 188.41,282.88 188.41,263.52 124.84,263.52 124.84,282.59 145.35,282.88 
		145.64,396.17 	"/>
	<path class="st1" d="M293.3,297.25c-8.38,0-17.63,4.7-17.63,8.46c0-10.98,0-42.19,0-42.19h-18.2v132.65h18.2v-7.53
		c3.47,4.62,8.67,7.55,15.03,7.53c6.36-0.02,17.63-3.78,17.63-17.36c0-13.58,0-46.81,0-58.95S301.68,297.25,293.3,297.25z
		 M290.7,375.34c0,9.82-15.6,9.82-15.6,0c0-9.82,0-48.26,0-56.06c0-7.8,15.6-11.56,15.6,0C290.7,326.22,290.7,365.52,290.7,375.34z"
		/>
	<path class="st1" d="M0,0v500h500V0H0z M284.4,106.01h16.31c0,0,0,48.93,0,70.34c0,21.41,17.33,8.16,17.33,2.04
		c0-6.12,0-72.37,0-72.37h17.33v98.88H318.3c0,0-0.25-2.48-0.25-11.21c-22.43,20.39-33.64,9.17-33.64-3.06
		C284.4,178.39,284.4,106.01,284.4,106.01z M267.07,124.36c0,0,0,18.35,0,57.08s-51.99,28.54-51.99,0s0-27.52,0-57.08
		C215.09,94.8,267.07,93.78,267.07,124.36z M169.22,71.36l12.74,50.97l13.76-50.97h19.37l-22.43,66.77v66.77h-20.39v-64.22
		l-23.45-69.32H169.22z M401.95,385.46c0,25.53-20.7,46.23-46.23,46.23h-209.2c-25.53,0-46.23-20.7-46.23-46.23V278.83
		c0-25.53,20.7-46.23,46.23-46.23h209.2c25.53,0,46.23,20.7,46.23,46.23V385.46z"/>
	<path class="st1" d="M375.07,320.73c0-6.07-0.29-25.72-23.12-25.72s-28.03,15.89-28.03,25.72c0,9.82,0,48.54,0,58.37
		c0,9.82,11.56,20.23,26.87,20.23c15.31,0,24.27-9.25,24.27-19.65s0-18.2,0-18.2h-17.92v10.98c0,8.67-15.6,10.98-15.6,0.29
		c0-10.69-0.58-23.98-0.58-23.98h34.1C375.07,348.76,375.07,326.8,375.07,320.73z M341.55,333.44c0-9.1,0-21.49,7.95-21.49
		c7.95,0,7.95,12.24,7.95,21.49H341.55z"/>
</g>
<path class="st0" d="M0,0v500h500V0H0z M157.26,410.14c0,9.33-7.57,16.9-16.9,16.9H95.01c-9.33,0-16.9-7.57-16.9-16.9V208.16
	c0-9.33,7.57-16.9,16.9-16.9h45.34c9.33,0,16.9,7.57,16.9,16.9V410.14z M117.48,160.96c-23.9,0-43.28-19.38-43.28-43.28
	S93.57,74.4,117.48,74.4c23.9,0,43.28,19.38,43.28,43.28S141.38,160.96,117.48,160.96z M424.05,417.25c0,4.42-0.44,7.95-7.07,7.95
	c-6.63,0-53.9,0-56.99,0c-3.09,0-6.63,0.88-6.63-14.14c0-15.02,0-84.82,0-123.26c0-19.88-20.32-37.81-39.32-37.81
	c-13.21,0-31.74,10.92-41.99,29.7v135.8c0,6.37-5.17,11.54-11.54,11.54h-49.46c-6.37,0-11.54-5.17-11.54-11.54V202.8
	c0-6.37,5.17-11.54,11.54-11.54h49.46c6.37,0,11.54,5.17,11.54,11.54v15.63c11.55-15.75,30.31-31.35,68.06-31.35
	c57.87,0,83.94,35.78,83.94,70.69C424.05,292.67,424.05,412.83,424.05,417.25z"/>
<path class="st2" d="M-0.26,0v500.26h188.58c0,0-0.35-18.13-0.35-24.7c0-5.94-0.31-25.64-0.31-46.59
	c-62.85,11.57-79.1-15.32-84.11-29.39c-2.81-7.19-15.01-29.39-25.64-35.33c-8.75-4.69-21.26-16.26-0.31-16.57
	c19.7-0.31,33.77,18.13,38.46,25.64c22.51,37.83,58.47,27.2,72.85,20.64c2.19-16.26,8.75-27.2,15.95-33.46
	C149.19,354.25,91.04,332.67,91.04,237c0-27.2,9.69-49.71,25.64-67.22c-2.5-6.25-11.26-31.89,2.5-66.28c0,0,20.95-6.57,68.79,25.64
	c20.01-5.63,41.27-8.44,62.53-8.44c21.26,0,42.52,2.81,62.53,8.44c47.84-32.52,68.79-25.64,68.79-25.64
	c13.76,34.39,5,60.03,2.5,66.28c15.95,17.51,25.64,39.71,25.64,67.22c0,95.99-58.47,117.25-114.12,123.5
	c9.07,7.82,16.88,22.82,16.88,46.27c0,33.46-0.31,60.34-0.31,68.79c0,6.57,0.49,24.7,0.49,24.7H500V0H-0.26z"/>
</svg>
