<?xml version="1.0" encoding="utf-8"?>
<!-- Generator: Adobe Illustrator 23.0.0, SVG Export Plug-In . SVG Version: 6.00 Build 0)  -->
<svg version="1.1" id="Layer_1" xmlns="http://www.w3.org/2000/svg" xmlns:xlink="http://www.w3.org/1999/xlink" x="0px" y="0px"
	 viewBox="0 0 500 500" style="enable-background:new 0 0 500 500;" xml:space="preserve">
<style type="text/css">
	.st0{display:none;fill:#FFFFFF;}
	.st1{display:none;}
	.st2{display:inline;fill:#FFFFFF;}
	.st3{display:none;fill-rule:evenodd;clip-rule:evenodd;fill:#FFFFFF;}
	.st4{fill:#FFFFFF;}
</style>
<path class="st0" d="M600.08,523.42v500h266.26V832.36h-64.02V753.1h64.02c0,0,0-36.59,0-81.3c0-44.72,42.68-73.17,94.51-73.17
	c51.83,0,60.98,0,60.98,0v72.15c0,0-28.46,0-42.68,0c-14.23,0-32.52,7.11-32.52,25.41s-2.03,54.88-2.03,54.88l77.24,1.02
	l-10.16,79.27l-65.04-1.02l2.96,193.09h150.5v-500H600.08z"/>
<g class="st1">
	<path class="st2" d="M264.72-395.46c0,16.31,0,33.64,0,45.87c0,12.23,17.58,11.21,17.58,0c0,0,0-30.58,0-45.87
		S264.72-411.77,264.72-395.46z"/>
	<path class="st2" d="M272.88-129.81v-98.88h-17.33c0,0,0,66.26,0,72.38s-17.33,19.37-17.33-2.04s0-70.34,0-70.34h-16.31
		c0,0,0,72.38,0,84.61c0,12.23,11.21,23.45,33.64,3.06c0,8.74,0.25,11.21,0.25,11.21H272.88z"/>
	<polygon class="st2" points="199.62,-129.77 199.62,-243.06 220.71,-243.06 220.71,-262.42 157.14,-262.42 157.14,-243.35 
		177.66,-243.06 177.95,-129.77 	"/>
	<path class="st2" d="M325.61-228.69c-8.38,0-17.63,4.7-17.63,8.46c0-10.98,0-42.19,0-42.19h-18.2v132.65h18.2v-7.53
		c3.47,4.62,8.67,7.55,15.03,7.53c6.36-0.02,17.63-3.78,17.63-17.36c0-13.58,0-46.81,0-58.95S333.99-228.69,325.61-228.69z
		 M323.01-150.59c0,9.82-15.6,9.82-15.6,0s0-48.26,0-56.06c0-7.8,15.6-11.56,15.6,0C323.01-199.72,323.01-160.42,323.01-150.59z"/>
	<path class="st2" d="M32.31-525.94v500h500v-500H32.31z M316.71-419.92h16.31c0,0,0,48.93,0,70.34c0,21.41,17.33,8.16,17.33,2.04
		c0-6.12,0-72.37,0-72.37h17.33v98.88H350.6c0,0-0.25-2.48-0.25-11.21c-22.43,20.39-33.64,9.17-33.64-3.06
		C316.71-347.55,316.71-419.92,316.71-419.92z M299.38-401.57c0,0,0,18.35,0,57.08s-51.99,28.54-51.99,0s0-27.52,0-57.08
		C247.39-431.14,299.38-432.15,299.38-401.57z M201.52-454.58l12.74,50.97l13.76-50.97h19.37l-22.43,66.77v66.77h-20.39v-64.22
		l-23.45-69.32H201.52z M434.25-140.48c0,25.53-20.7,46.23-46.23,46.23h-209.2c-25.53,0-46.23-20.7-46.23-46.23v-106.63
		c0-25.53,20.7-46.23,46.23-46.23h209.2c25.53,0,46.23,20.7,46.23,46.23V-140.48z"/>
	<path class="st2" d="M407.38-205.21c0-6.07-0.29-25.72-23.12-25.72s-28.03,15.89-28.03,25.72s0,48.54,0,58.37
		s11.56,20.23,26.87,20.23c15.31,0,24.27-9.25,24.27-19.65c0-10.4,0-18.2,0-18.2h-17.92v10.98c0,8.67-15.6,10.98-15.6,0.29
		c0-10.69-0.58-23.98-0.58-23.98h34.1C407.38-177.18,407.38-199.14,407.38-205.21z M373.86-192.49c0-9.1,0-21.49,7.95-21.49
		c7.95,0,7.95,12.24,7.95,21.49H373.86z"/>
</g>
<path class="st0" d="M-536.86,187.08v500h500v-500H-536.86z M-379.61,597.22c0,9.33-7.57,16.9-16.9,16.9h-45.34
	c-9.33,0-16.9-7.57-16.9-16.9V395.24c0-9.33,7.57-16.9,16.9-16.9h45.34c9.33,0,16.9,7.57,16.9,16.9V597.22z M-419.39,348.04
	c-23.9,0-43.28-19.38-43.28-43.28c0-23.9,19.38-43.28,43.28-43.28c23.9,0,43.28,19.38,43.28,43.28
	C-376.11,328.67-395.48,348.04-419.39,348.04z M-112.81,604.33c0,4.42-0.44,7.95-7.07,7.95c-6.63,0-53.9,0-56.99,0
	c-3.09,0-6.63,0.88-6.63-14.14c0-15.02,0-84.82,0-123.26c0-19.88-20.32-37.81-39.32-37.81c-13.21,0-31.74,10.92-41.99,29.7v135.8
	c0,6.37-5.17,11.54-11.54,11.54h-49.46c-6.37,0-11.54-5.17-11.54-11.54v-212.7c0-6.37,5.17-11.54,11.54-11.54h49.46
	c6.37,0,11.54,5.17,11.54,11.54v15.63c11.55-15.75,30.31-31.35,68.06-31.35c57.87,0,83.94,35.78,83.94,70.69
	C-112.81,479.75-112.81,599.91-112.81,604.33z"/>
<path class="st3" d="M592.17-45.24v500.26h188.58c0,0-0.35-18.13-0.35-24.7c0-5.94-0.31-25.64-0.31-46.59
	c-62.85,11.57-79.1-15.32-84.11-29.39c-2.81-7.19-15.01-29.39-25.64-35.33c-8.75-4.69-21.26-16.26-0.31-16.57
	c19.7-0.31,33.77,18.13,38.46,25.64c22.51,37.83,58.47,27.2,72.85,20.64c2.19-16.26,8.75-27.2,15.95-33.46
	c-55.65-6.25-113.81-27.83-113.81-123.5c0-27.2,9.69-49.71,25.64-67.22c-2.5-6.25-11.26-31.89,2.5-66.28c0,0,20.95-6.57,68.79,25.64
	c20.01-5.63,41.27-8.44,62.53-8.44s42.52,2.81,62.53,8.44c47.84-32.52,68.79-25.64,68.79-25.64c13.76,34.39,5,60.03,2.5,66.28
	c15.95,17.51,25.64,39.71,25.64,67.22c0,95.99-58.47,117.25-114.12,123.5c9.07,7.82,16.88,22.82,16.88,46.27
	c0,33.46-0.31,60.34-0.31,68.79c0,6.57,0.49,24.7,0.49,24.7h187.11V-45.24H592.17z"/>
<g>
	<path class="st4" d="M274.3,145.59H166.71V354.3h106.47c0,0,81.14-11.55,81.14-103.17C354.32,157.98,274.3,145.59,274.3,145.59z
		 M269.52,312.61h-61.68V187.28h61.12c0,0,43.37,7.32,43.66,62.67C312.89,305.29,269.52,312.61,269.52,312.61z"/>
	<path class="st4" d="M0,0v500h500V0H0z M374.28,459H126.52L13.4,250L125.73,41.56h250.15L488.99,250L374.28,459z"/>
</g>
</svg>
