<?xml version="1.0" encoding="utf-8"?>
<!-- Generator: Adobe Illustrator 23.0.0, SVG Export Plug-In . SVG Version: 6.00 Build 0)  -->
<svg version="1.1" id="Layer_1" xmlns="http://www.w3.org/2000/svg" xmlns:xlink="http://www.w3.org/1999/xlink" x="0px" y="0px"
	 viewBox="0 0 500 500" style="enable-background:new 0 0 500 500;" xml:space="preserve">
<style type="text/css">
	.st0{display:none;fill:#FFFFFF;}
	.st1{display:none;}
	.st2{display:inline;fill:#FFFFFF;}
	.st3{fill-rule:evenodd;clip-rule:evenodd;fill:#FFFFFF;}
</style>
<path class="st0" d="M-498.99-109.78V18.44h68.28v-49h-16.42v-20.33h16.42c0,0,0-9.38,0-20.85s10.95-18.76,24.24-18.76
	c13.29,0,15.64,0,15.64,0V-72c0,0-7.3,0-10.95,0c-3.65,0-8.34,1.82-8.34,6.52s-0.52,14.07-0.52,14.07l19.81,0.26l-2.61,20.33
	l-16.68-0.26l0.76,49.52h38.6v-128.22H-498.99z"/>
<g class="st1">
	<path class="st2" d="M598.36-30.56c0,4.17,0,8.6,0,11.73c0,3.13,4.5,2.87,4.5,0c0,0,0-7.82,0-11.73S598.36-34.73,598.36-30.56z"/>
	<path class="st2" d="M600.45,37.36V12.08h-4.43c0,0,0,16.94,0,18.5s-4.43,4.95-4.43-0.52s0-17.98,0-17.98h-4.17c0,0,0,18.5,0,21.63
		c0,3.13,2.87,5.99,8.6,0.78c0,2.23,0.06,2.87,0.06,2.87H600.45z"/>
	<polygon class="st2" points="581.72,37.37 581.72,8.41 587.11,8.41 587.11,3.46 570.86,3.46 570.86,8.33 576.11,8.41 576.18,37.37 
			"/>
	<path class="st2" d="M613.93,12.08c-2.14,0-4.51,1.2-4.51,2.16c0-2.81,0-10.79,0-10.79h-4.65v33.91h4.65v-1.93
		c0.89,1.18,2.22,1.93,3.84,1.93c1.63-0.01,4.51-0.97,4.51-4.44s0-11.97,0-15.07S616.07,12.08,613.93,12.08z M613.27,32.05
		c0,2.51-3.99,2.51-3.99,0s0-12.34,0-14.33c0-1.99,3.99-2.96,3.99,0C613.27,19.49,613.27,29.53,613.27,32.05z"/>
	<path class="st2" d="M538.94-63.92V63.92h127.83V-63.92H538.94z M611.66-36.81h4.17c0,0,0,12.51,0,17.98
		c0,5.47,4.43,2.08,4.43,0.52c0-1.56,0-18.5,0-18.5h4.43v25.28h-4.37c0,0-0.06-0.63-0.06-2.87c-5.73,5.21-8.6,2.35-8.6-0.78
		C611.66-18.31,611.66-36.81,611.66-36.81z M607.23-32.12c0,0,0,4.69,0,14.59s-13.29,7.3-13.29,0s0-7.04,0-14.59
		C593.93-39.68,607.23-39.94,607.23-32.12z M582.21-45.67l3.26,13.03l3.52-13.03h4.95L588.2-28.6v17.07h-5.21v-16.42l-5.99-17.72
		H582.21z M641.71,34.63c0,6.53-5.29,11.82-11.82,11.82H576.4c-6.53,0-11.82-5.29-11.82-11.82V7.37c0-6.53,5.29-11.82,11.82-11.82
		h53.49c6.53,0,11.82,5.29,11.82,11.82V34.63z"/>
	<path class="st2" d="M634.84,18.08c0-1.55-0.07-6.57-5.91-6.57s-7.17,4.06-7.17,6.57s0,12.41,0,14.92s2.96,5.17,6.87,5.17
		c3.92,0,6.21-2.36,6.21-5.02s0-4.65,0-4.65h-4.58v2.81c0,2.22-3.99,2.81-3.99,0.07c0-2.73-0.15-6.13-0.15-6.13h8.72
		C634.84,25.25,634.84,19.63,634.84,18.08z M626.27,21.33c0-2.33,0-5.49,2.03-5.49c2.03,0,2.03,3.13,2.03,5.49H626.27z"/>
</g>
<path class="st0" d="M276.53-173.35v127.68h127.68v-127.68H276.53z M316.69-68.62c0,2.38-1.93,4.32-4.32,4.32h-11.58
	c-2.38,0-4.32-1.93-4.32-4.32v-51.58c0-2.38,1.93-4.32,4.32-4.32h11.58c2.38,0,4.32,1.93,4.32,4.32V-68.62z M306.53-132.25
	c-6.1,0-11.05-4.95-11.05-11.05s4.95-11.05,11.05-11.05c6.1,0,11.05,4.95,11.05,11.05S312.63-132.25,306.53-132.25z M384.82-66.8
	c0,1.13-0.11,2.03-1.81,2.03c-1.69,0-13.76,0-14.55,0c-0.79,0-1.69,0.23-1.69-3.61c0-3.84,0-21.66,0-31.47
	c0-5.08-5.19-9.65-10.04-9.65c-3.37,0-8.11,2.79-10.72,7.58v34.68c0,1.63-1.32,2.95-2.95,2.95h-12.63c-1.63,0-2.95-1.32-2.95-2.95
	v-54.31c0-1.63,1.32-2.95,2.95-2.95h12.63c1.63,0,2.95,1.32,2.95,2.95v3.99c2.95-4.02,7.74-8.01,17.38-8.01
	c14.78,0,21.43,9.14,21.43,18.05C384.82-98.62,384.82-67.93,384.82-66.8z"/>
<path class="st3" d="M-0.26,0v500.26h188.58c0,0-0.35-18.13-0.35-24.7c0-5.94-0.31-25.64-0.31-46.59
	c-62.85,11.57-79.1-15.32-84.11-29.39c-2.81-7.19-15.01-29.39-25.64-35.33c-8.75-4.69-21.26-16.26-0.31-16.57
	c19.7-0.31,33.77,18.13,38.46,25.64c22.51,37.83,58.47,27.2,72.85,20.64c2.19-16.26,8.75-27.2,15.95-33.46
	C149.19,354.25,91.04,332.67,91.04,237c0-27.2,9.69-49.71,25.64-67.22c-2.5-6.25-11.26-31.89,2.5-66.28c0,0,20.95-6.57,68.79,25.64
	c20.01-5.63,41.27-8.44,62.53-8.44c21.26,0,42.52,2.81,62.53,8.44c47.84-32.52,68.79-25.64,68.79-25.64
	c13.76,34.39,5,60.03,2.5,66.28c15.95,17.51,25.64,39.71,25.64,67.22c0,95.99-58.47,117.25-114.12,123.5
	c9.07,7.82,16.88,22.82,16.88,46.27c0,33.46-0.31,60.34-0.31,68.79c0,6.57,0.49,24.7,0.49,24.7H500V0H-0.26z"/>
</svg>
